# xmcd
# 
# Track frame offsets:
#     150
#     13035
#     26682
#     41193
#     54778
#     68227
#     82313
#     94790
#     110924
#     124826
#     141511
#     157740
#     169559
#     187274
#     199760
# 
# Disc length: 2845
# 
# Revision: 1
# Processed by: cddbd v1.5.2PL0 Copyright (c) Steve Scherf et al.
# Submitted via: BonkEnc v1.0.8
# 
DISCID=d70b1b0f
DTITLE=Rio Negro e Solimões - Arrastão
DYEAR=2008
DGENRE=Country
TTITLE0=Vida Louca
TTITLE1=Alô, Meu Coração
TTITLE2=Moído de Paixão
TTITLE3=Saude e Paz
TTITLE4=Arrastão
TTITLE5=Traz Mais Uma
TTITLE6=Miserenta
TTITLE7=Só Eu
TTITLE8=Vai e Vem
TTITLE9=Chora, Violão
TTITLE10=Nosso Filme
TTITLE11=Latinha no Bico
TTITLE12=No Seu Coração
TTITLE13=Tá Ficando Bom
TTITLE14=A Fila Tá Andando
EXTD=
EXTT0=
EXTT1=
EXTT2=
EXTT3=
EXTT4=
EXTT5=
EXTT6=
EXTT7=
EXTT8=
EXTT9=
EXTT10=
EXTT11=
EXTT12=
EXTT13=
EXTT14=
PLAYORDER=
